<svg version="1.1" id="Layer_1" xmlns="http://www.w3.org/2000/svg" xmlns:xlink="http://www.w3.org/1999/xlink" x="0px" y="0px"
	 width="100%" viewBox="0 0 251 127" enable-background="new 0 0 251 127" xml:space="preserve">
<path fill="#FEFDFE" opacity="1.000000" stroke="none" 
	d="
M188.000000,128.000000 
	C125.333336,128.000000 63.166676,128.000000 1.000008,128.000000 
	C1.000005,85.666672 1.000005,43.333347 1.000003,1.000014 
	C84.666656,1.000009 168.333313,1.000009 251.999969,1.000005 
	C251.999985,43.333321 251.999985,85.666641 252.000000,127.999985 
	C230.833328,128.000000 209.666672,128.000000 188.000000,128.000000 
M27.998514,17.999641 
	C27.998514,17.999641 27.980051,17.944613 27.496794,18.150133 
	C27.283981,18.423954 27.071167,18.697775 26.359341,19.189590 
	C25.890829,19.730074 25.422318,20.270557 24.495474,21.085556 
	C24.306421,21.379736 24.117369,21.673918 23.994492,21.991659 
	C23.994492,21.991659 23.965317,21.927761 23.490303,22.127121 
	C23.304319,22.408649 23.118336,22.690178 22.994673,22.995207 
	C22.994673,22.995207 22.971407,22.932795 22.492174,23.142294 
	C22.287388,23.420395 22.082600,23.698494 21.468164,24.162189 
	C21.221138,24.352482 21.056316,24.597971 20.416084,25.275167 
	C19.561010,26.838366 18.705936,28.401564 17.349047,30.355066 
	C16.881659,31.529144 16.414270,32.703220 15.461897,34.255402 
	C15.319513,34.836620 15.177130,35.417839 14.954190,36.414261 
	C14.954190,36.414261 14.934751,36.836754 14.445619,37.224792 
	C14.310675,37.816761 14.175730,38.408726 13.957604,39.408730 
	C13.957604,39.408730 13.930105,39.824249 13.362486,40.380836 
	C11.235239,49.623775 10.215197,58.884800 12.923745,69.008293 
	C13.943872,85.218895 32.588245,102.205383 46.401134,101.662254 
	C51.608074,101.129280 56.815010,100.596313 62.682835,100.043159 
	C63.121735,100.002945 63.560635,99.962738 64.492531,99.830826 
	C64.683723,99.566330 64.874916,99.301842 64.997986,99.017998 
	C64.997986,99.017998 65.034042,99.078949 65.726257,99.040222 
	C66.885132,98.394783 68.043999,97.749344 69.783371,96.766090 
	C72.199226,94.874390 74.615074,92.982689 77.680099,90.522209 
	C77.826035,81.394867 78.085899,72.267586 78.090675,63.140163 
	C78.097519,50.081818 79.394585,52.057030 66.980377,52.045452 
	C60.915943,52.039795 54.850971,52.614422 48.398567,53.099918 
	C48.154438,53.269928 47.997276,53.499485 47.402649,54.317867 
	C47.301910,55.530895 47.201172,56.743919 47.032108,58.803982 
	C47.033054,65.080368 47.855087,65.925529 54.136356,65.999275 
	C56.893745,66.031647 59.651833,66.004723 62.935452,66.004723 
	C62.935452,72.662781 62.935452,78.725349 62.340858,84.919685 
	C61.877941,85.268692 61.415020,85.617699 61.007614,85.986313 
	C61.007614,85.986313 60.967724,85.942665 60.187862,86.044571 
	C55.120918,86.389572 50.053970,86.734573 44.405624,86.979408 
	C44.013805,86.951805 43.621986,86.924202 42.813656,86.424187 
	C42.219273,86.254692 41.624889,86.085190 41.003731,85.983742 
	C41.003731,85.983742 41.072414,85.958656 40.866447,85.489815 
	C40.580002,85.315750 40.293560,85.141685 39.998035,85.003609 
	C39.998035,85.003609 40.033062,84.991318 39.831230,84.558632 
	C39.638889,84.272430 39.370449,84.122719 38.442574,83.750465 
	C27.156912,74.984596 25.238356,48.109390 32.579288,36.032303 
	C34.621468,32.672569 37.535053,29.330999 40.866871,27.373188 
	C47.795628,23.301781 54.995979,22.927860 62.417484,27.437201 
	C69.946625,32.011940 70.666725,31.600594 74.887772,24.424402 
	C75.579178,23.248964 75.431343,20.297409 74.597504,19.721462 
	C70.151649,16.650623 65.675011,12.931460 60.631630,11.560246 
	C49.513119,8.537295 38.697891,10.370803 28.518795,17.196800 
	C28.213617,17.373922 28.022131,17.634592 27.998514,17.999641 
M112.603500,42.598587 
	C112.706062,41.414852 112.808624,40.231121 113.246429,38.438583 
	C113.461624,38.184647 113.702126,37.947941 113.888397,37.674316 
	C124.015877,22.797037 133.590790,20.807121 148.795456,30.020548 
	C150.084366,30.801580 152.858475,29.769053 154.617416,28.911806 
	C155.779816,28.345287 156.177750,26.390896 157.235443,25.395119 
	C160.484802,22.335970 158.753189,19.324831 156.195343,17.977882 
	C150.770950,15.121421 144.991867,12.750401 139.110245,11.026196 
	C135.962082,10.103311 132.262680,10.632867 128.875168,11.036664 
	C119.581001,12.144544 111.249229,15.779576 105.156853,22.940722 
	C95.231827,34.606869 92.273392,48.726933 94.248497,63.435944 
	C96.404106,79.489197 103.299355,92.958702 119.673164,99.385414 
	C133.246506,104.712952 149.644470,101.609215 160.077591,91.177574 
	C161.003738,90.251556 161.732239,88.053947 161.275635,87.000214 
	C158.998062,81.744141 154.096756,80.242950 148.882797,82.856171 
	C147.409241,83.594711 146.056046,84.612137 144.532013,85.203857 
	C140.195740,86.887444 136.438217,89.517021 131.029999,88.715324 
	C122.277077,87.417824 111.949776,73.832245 111.053062,64.069458 
	C111.394424,57.052338 111.735779,50.035221 112.007812,43.004051 
	C112.007812,43.004051 112.049820,43.060963 112.603500,42.598587 
M197.394608,16.356018 
	C196.948212,17.909636 196.501801,19.463253 195.957932,21.402891 
	C195.957932,21.402891 195.930038,21.800047 195.443909,22.197916 
	C195.319473,22.795263 195.195038,23.392609 194.716003,24.642719 
	C187.109283,48.038548 179.502563,71.434372 171.343750,95.421600 
	C171.267990,96.809509 171.192230,98.197426 171.093597,100.004601 
	C175.847916,100.004601 180.004639,100.208778 184.116531,99.869591 
	C185.227264,99.777977 186.202179,98.039642 187.740509,96.538162 
	C189.164108,91.358177 190.587708,86.178185 192.528610,80.587685 
	C192.672668,79.732239 192.816727,78.876793 193.037491,77.592720 
	C193.037491,77.592720 193.050644,77.157471 193.784134,76.742264 
	C202.853897,76.524017 211.923660,76.305771 221.173080,76.494293 
	C221.332916,76.759171 221.557983,76.945038 221.911530,77.715027 
	C222.212448,78.508713 222.513367,79.302391 222.902176,80.887108 
	C224.544708,86.274803 226.187256,91.662498 227.960007,97.870903 
	C228.238876,98.441757 228.497192,99.498184 228.799667,99.510994 
	C233.729980,99.719666 238.666595,99.833115 243.597412,99.739204 
	C243.758835,99.736137 243.874283,97.318359 243.616623,95.706764 
	C242.268204,91.735573 240.878250,87.777885 239.581635,83.789841 
	C237.875946,78.543549 236.270477,73.264725 234.574921,68.015060 
	C229.080292,51.002811 223.564194,33.997494 218.017685,16.194798 
	C217.738907,13.225636 216.286865,11.787519 213.130829,11.944273 
	C209.487106,12.125250 205.823578,12.091811 202.176086,11.954268 
	C199.250076,11.843930 197.762054,12.959253 197.990891,16.004219 
	C197.990891,16.004219 197.952072,15.946597 197.394608,16.356018 
M113.035477,104.008163 
	C82.118416,104.008163 51.201359,104.008163 20.239836,104.008163 
	C20.239836,109.633385 20.239836,114.562729 20.239836,119.731491 
	C95.209175,119.731491 169.917847,119.731491 244.844116,119.731491 
	C244.844116,116.311142 244.844116,113.181793 244.983932,109.358215 
	C244.934921,108.891144 244.885925,108.424072 244.973785,107.098366 
	C245.357071,104.738235 244.424728,103.850281 241.985413,103.934753 
	C237.492844,104.090317 232.991013,103.971848 228.493057,103.978592 
	C191.013092,104.034775 153.533112,104.093468 115.360092,104.004692 
	C114.892525,104.051460 114.424957,104.098221 113.035477,104.008163 
z"/>
<path fill="#50899F" opacity="1.000000" stroke="none" 
	d="
M244.836914,107.957001 
	C244.885925,108.424072 244.934921,108.891144 244.657440,110.001419 
	C243.460785,118.994759 243.460785,118.994598 234.584091,118.994568 
	C203.757874,118.994484 172.931656,118.994537 142.105438,118.994499 
	C103.947578,118.994453 65.789726,119.001282 27.631870,118.986755 
	C21.973274,118.984604 20.258881,116.755058 21.434187,111.149864 
	C21.833094,109.247421 22.163668,107.330658 22.604456,105.003387 
	C24.619120,105.003387 26.419067,105.003456 28.219015,105.003380 
	C54.879524,105.002266 81.540077,105.018700 108.200470,104.963181 
	C110.120003,104.959183 112.038445,104.430000 113.957390,104.144989 
	C114.424957,104.098221 114.892525,104.051460 116.018120,104.343338 
	C117.161613,104.782402 117.646988,104.970238 118.132553,104.970703 
	C141.877304,104.993385 165.622086,105.001503 189.366852,105.007698 
	C202.198242,105.011047 215.029724,104.978706 227.860931,105.027504 
	C231.292084,105.040550 234.800476,105.800018 238.130173,105.287003 
	C241.223984,104.810333 243.279617,105.338814 244.836914,107.957001 
z"/>
<path fill="#CB9AFC" opacity="1.000000" stroke="none" 
	d="
M47.927086,53.788586 
	C47.997276,53.499485 48.154438,53.269928 49.082207,53.041515 
	C56.595394,52.991161 63.425018,52.982044 70.254471,53.012474 
	C76.122696,53.038620 76.972313,53.854259 76.993065,59.608414 
	C77.030922,70.102516 77.020943,80.596786 77.030922,91.090981 
	C74.615074,92.982689 72.199226,94.874390 69.121460,96.902283 
	C67.317711,97.718636 66.175873,98.398788 65.034042,99.078949 
	C65.034042,99.078949 64.997986,99.017998 64.803894,99.107269 
	C64.320915,99.366707 64.117493,99.608696 63.999535,99.922531 
	C63.560635,99.962738 63.121735,100.002945 62.116879,99.765694 
	C56.276867,100.031776 51.002811,100.575333 45.728756,101.118889 
	C32.588245,102.205383 13.943872,85.218895 12.950321,68.118713 
	C13.294634,58.094177 13.612370,48.959213 13.930105,39.824249 
	C13.930105,39.824249 13.957604,39.408730 14.247566,39.017529 
	C14.669936,38.029804 14.802343,37.433277 14.934751,36.836754 
	C14.934751,36.836754 14.954190,36.414261 15.241047,36.024406 
	C15.667563,35.048798 15.807223,34.463047 15.946882,33.877296 
	C16.414270,32.703220 16.881659,31.529144 17.952065,30.040794 
	C19.361288,28.117235 20.167496,26.507944 20.973703,24.898655 
	C21.056316,24.597971 21.221138,24.352482 21.922281,23.974424 
	C22.574734,23.502039 22.773071,23.217417 22.971409,22.932795 
	C22.971407,22.932795 22.994673,22.995207 23.201729,22.883696 
	C23.594294,22.490711 23.779806,22.209236 23.965317,21.927761 
	C23.965317,21.927761 23.994492,21.991659 24.210579,21.867552 
	C24.602381,21.432642 24.778093,21.121841 24.953804,20.811041 
	C25.422318,20.270557 25.890829,19.730074 26.862156,18.990965 
	C27.569996,18.509764 27.775024,18.227188 27.980051,17.944613 
	C27.980051,17.944613 27.998514,17.999641 28.198406,17.901917 
	C28.685415,17.626846 28.884527,17.378853 28.995636,17.060211 
	C38.697891,10.370803 49.513119,8.537295 60.631630,11.560246 
	C65.675011,12.931460 70.151649,16.650623 74.597504,19.721462 
	C75.431343,20.297409 75.579178,23.248964 74.887772,24.424402 
	C70.666725,31.600594 69.946625,32.011940 62.417484,27.437201 
	C54.995979,22.927860 47.795628,23.301781 40.866871,27.373188 
	C37.535053,29.330999 34.621468,32.672569 32.579288,36.032303 
	C25.238356,48.109390 27.156912,74.984596 38.847099,84.131241 
	C39.458984,84.758316 39.719463,84.918083 40.033062,84.991318 
	C40.033062,84.991318 39.998035,85.003609 40.111328,85.216286 
	C40.507221,85.605522 40.789818,85.782089 41.072414,85.958656 
	C41.072414,85.958656 41.003731,85.983742 41.186859,86.228271 
	C41.990051,86.614067 42.610107,86.755333 43.230167,86.896599 
	C43.621986,86.924202 44.013805,86.951805 44.772778,87.388306 
	C50.643230,91.236267 57.945927,90.380615 60.967724,85.942665 
	C60.967724,85.942665 61.007614,85.986313 61.298206,85.965225 
	C62.037682,85.558731 62.486565,85.173325 62.935452,84.787918 
	C62.935452,78.725349 62.935452,72.662781 62.935452,66.004723 
	C59.651833,66.004723 56.893745,66.031647 54.136356,65.999275 
	C47.855087,65.925529 47.033054,65.080368 47.324646,58.128822 
	C47.720482,56.231968 47.823784,55.010277 47.927086,53.788586 
z"/>
<path fill="#CB9BFC" opacity="1.000000" stroke="none" 
	d="
M193.050644,77.157471 
	C193.050644,77.157471 193.037491,77.592720 192.744385,78.013367 
	C192.304611,79.288742 192.157959,80.143471 192.011307,80.998199 
	C190.587708,86.178185 189.164108,91.358177 187.105865,96.924576 
	C180.514328,100.773575 173.645172,99.604408 171.895859,94.830200 
	C179.502563,71.434372 187.109283,48.038548 195.137726,24.123720 
	C195.682983,23.003162 195.806503,22.401606 195.930038,21.800047 
	C195.930038,21.800047 195.957932,21.402891 196.371429,21.129211 
	C197.173965,19.219223 197.563019,17.582911 197.952072,15.946598 
	C197.952072,15.946597 197.990891,16.004219 198.305115,15.835010 
	C199.916702,14.781867 201.179459,13.202194 202.517502,13.135629 
	C208.019180,12.861924 213.855637,11.828743 218.056351,16.989506 
	C223.564194,33.997494 229.080292,51.002811 234.574921,68.015060 
	C236.270477,73.264725 237.875946,78.543549 239.581635,83.789841 
	C240.878250,87.777885 242.268204,91.735573 243.793854,96.277603 
	C242.921783,97.563812 241.813431,98.961800 240.833405,98.876984 
	C236.478790,98.500084 232.160934,97.698326 227.829803,97.050201 
	C226.187256,91.662498 224.544708,86.274803 223.144348,80.292427 
	C222.873795,78.815796 222.361053,77.933853 221.848312,77.051903 
	C221.557983,76.945038 221.332916,76.759171 220.807190,75.970688 
	C212.198288,75.300240 203.955109,75.086700 195.712402,75.102982 
	C194.823807,75.104744 193.937836,76.440506 193.050644,77.157471 
M212.146942,63.998325 
	C214.645081,63.911388 217.689331,64.267586 216.508331,60.180744 
	C213.672226,50.366520 210.704453,40.590343 207.789810,30.798815 
	C204.437027,39.554108 202.005936,48.381721 199.468445,57.178654 
	C197.525116,63.915771 197.539810,63.995468 204.752289,64.000175 
	C206.912079,64.001579 209.071869,63.998749 212.146942,63.998325 
z"/>
<path fill="#CB9BFB" opacity="1.000000" stroke="none" 
	d="
M111.015961,65.006683 
	C111.949776,73.832245 122.277077,87.417824 131.029999,88.715324 
	C136.438217,89.517021 140.195740,86.887444 144.532013,85.203857 
	C146.056046,84.612137 147.409241,83.594711 148.882797,82.856171 
	C154.096756,80.242950 158.998062,81.744141 161.275635,87.000214 
	C161.732239,88.053947 161.003738,90.251556 160.077591,91.177574 
	C149.644470,101.609215 133.246506,104.712952 119.673164,99.385414 
	C103.299355,92.958702 96.404106,79.489197 94.248497,63.435944 
	C92.273392,48.726933 95.231827,34.606869 105.156853,22.940722 
	C111.249229,15.779576 119.581001,12.144544 128.875168,11.036664 
	C132.262680,10.632867 135.962082,10.103311 139.110245,11.026196 
	C144.991867,12.750401 150.770950,15.121421 156.195343,17.977882 
	C158.753189,19.324831 160.484802,22.335970 157.235443,25.395119 
	C156.177750,26.390896 155.779816,28.345287 154.617416,28.911806 
	C152.858475,29.769053 150.084366,30.801580 148.795456,30.020548 
	C133.590790,20.807121 124.015877,22.797037 113.888397,37.674316 
	C113.702126,37.947941 113.461624,38.184647 112.822220,38.983040 
	C112.281944,40.705315 112.165886,41.883141 112.049820,43.060963 
	C112.049820,43.060963 112.007812,43.004051 111.721504,43.233566 
	C111.295456,50.644283 111.155708,57.825485 111.015961,65.006683 
z"/>
<path fill="#5F8391" opacity="1.000000" stroke="none" 
	d="
M113.496429,104.076584 
	C112.038445,104.430000 110.120003,104.959183 108.200470,104.963181 
	C81.540077,105.018700 54.879524,105.002266 28.219015,105.003380 
	C26.419067,105.003456 24.619120,105.003387 22.604456,105.003387 
	C22.163668,107.330658 21.833094,109.247421 21.434187,111.149864 
	C20.258881,116.755058 21.973274,118.984604 27.631870,118.986755 
	C65.789726,119.001282 103.947578,118.994453 142.105438,118.994499 
	C172.931656,118.994537 203.757874,118.994484 234.584091,118.994568 
	C243.460785,118.994598 243.460785,118.994759 244.587524,110.348526 
	C244.844116,113.181793 244.844116,116.311142 244.844116,119.731491 
	C169.917847,119.731491 95.209175,119.731491 20.239836,119.731491 
	C20.239836,114.562729 20.239836,109.633385 20.239836,104.008163 
	C51.201359,104.008163 82.118416,104.008163 113.496429,104.076584 
z"/>
<path fill="#5F8391" opacity="1.000000" stroke="none" 
	d="
M244.905350,107.527679 
	C243.279617,105.338814 241.223984,104.810333 238.130173,105.287003 
	C234.800476,105.800018 231.292084,105.040550 227.860931,105.027504 
	C215.029724,104.978706 202.198242,105.011047 189.366852,105.007698 
	C165.622086,105.001503 141.877304,104.993385 118.132553,104.970703 
	C117.646988,104.970238 117.161613,104.782402 116.364647,104.416687 
	C153.533112,104.093468 191.013092,104.034775 228.493057,103.978592 
	C232.991013,103.971848 237.492844,104.090317 241.985413,103.934753 
	C244.424728,103.850281 245.357071,104.738235 244.905350,107.527679 
z"/>
<path fill="#C4A2E8" opacity="1.000000" stroke="none" 
	d="
M77.355515,90.806595 
	C77.020943,80.596786 77.030922,70.102516 76.993065,59.608414 
	C76.972313,53.854259 76.122696,53.038620 70.254471,53.012474 
	C63.425018,52.982044 56.595394,52.991161 49.276039,52.954754 
	C54.850971,52.614422 60.915943,52.039795 66.980377,52.045452 
	C79.394585,52.057030 78.097519,50.081818 78.090675,63.140163 
	C78.085899,72.267586 77.826035,81.394867 77.355515,90.806595 
z"/>
<path fill="#C7A4EB" opacity="1.000000" stroke="none" 
	d="
M13.646296,40.102543 
	C13.612370,48.959213 13.294634,58.094177 12.942430,67.717804 
	C10.215197,58.884800 11.235239,49.623775 13.646296,40.102543 
z"/>
<path fill="#C4A4E5" opacity="1.000000" stroke="none" 
	d="
M218.037018,16.592152 
	C213.855637,11.828743 208.019180,12.861924 202.517502,13.135629 
	C201.179459,13.202194 199.916702,14.781867 198.274017,15.819503 
	C197.762054,12.959253 199.250076,11.843930 202.176086,11.954268 
	C205.823578,12.091811 209.487106,12.125250 213.130829,11.944273 
	C216.286865,11.787519 217.738907,13.225636 218.037018,16.592152 
z"/>
<path fill="#C5A3EB" opacity="1.000000" stroke="none" 
	d="
M60.577793,85.993622 
	C57.945927,90.380615 50.643230,91.236267 45.063477,87.438385 
	C50.053970,86.734573 55.120918,86.389572 60.577793,85.993622 
z"/>
<path fill="#C3A3E5" opacity="1.000000" stroke="none" 
	d="
M193.417389,76.949867 
	C193.937836,76.440506 194.823807,75.104744 195.712402,75.102982 
	C203.955109,75.086700 212.198288,75.300240 220.717377,75.767303 
	C211.923660,76.305771 202.853897,76.524017 193.417389,76.949867 
z"/>
<path fill="#C5A5E2" opacity="1.000000" stroke="none" 
	d="
M171.619812,95.125900 
	C173.645172,99.604408 180.514328,100.773575 186.855316,97.184082 
	C186.202179,98.039642 185.227264,99.777977 184.116531,99.869591 
	C180.004639,100.208778 175.847916,100.004601 171.093597,100.004601 
	C171.192230,98.197426 171.267990,96.809509 171.619812,95.125900 
z"/>
<path fill="#C4A4E3" opacity="1.000000" stroke="none" 
	d="
M227.894897,97.460556 
	C232.160934,97.698326 236.478790,98.500084 240.833405,98.876984 
	C241.813431,98.961800 242.921783,97.563812 243.991119,96.437317 
	C243.874283,97.318359 243.758835,99.736137 243.597412,99.739204 
	C238.666595,99.833115 233.729980,99.719666 228.799667,99.510994 
	C228.497192,99.498184 228.238876,98.441757 227.894897,97.460556 
z"/>
<path fill="#C69FED" opacity="1.000000" stroke="none" 
	d="
M111.034515,64.538071 
	C111.155708,57.825485 111.295456,50.644283 111.756165,43.240593 
	C111.735779,50.035221 111.394424,57.052338 111.034515,64.538071 
z"/>
<path fill="#C7A7EA" opacity="1.000000" stroke="none" 
	d="
M46.064945,101.390572 
	C51.002811,100.575333 56.276867,100.031776 61.786438,99.775787 
	C56.815010,100.596313 51.608074,101.129280 46.064945,101.390572 
z"/>
<path fill="#C3A2EC" opacity="1.000000" stroke="none" 
	d="
M20.694893,25.086910 
	C20.167496,26.507944 19.361288,28.117235 18.202972,29.845642 
	C18.705936,28.401564 19.561010,26.838366 20.694893,25.086910 
z"/>
<path fill="#C4A4E5" opacity="1.000000" stroke="none" 
	d="
M197.673340,16.151308 
	C197.563019,17.582911 197.173965,19.219223 196.420151,20.936203 
	C196.501801,19.463253 196.948212,17.909636 197.673340,16.151308 
z"/>
<path fill="#C7A7EA" opacity="1.000000" stroke="none" 
	d="
M65.380142,99.059586 
	C66.175873,98.398788 67.317711,97.718636 68.831207,97.071190 
	C68.043999,97.749344 66.885132,98.394783 65.380142,99.059586 
z"/>
<path fill="#C3A3E5" opacity="1.000000" stroke="none" 
	d="
M221.879913,77.383469 
	C222.361053,77.933853 222.873795,78.815796 223.100403,79.896912 
	C222.513367,79.302391 222.212448,78.508713 221.879913,77.383469 
z"/>
<path fill="#C69FED" opacity="1.000000" stroke="none" 
	d="
M112.326660,42.829773 
	C112.165886,41.883141 112.281944,40.705315 112.654602,39.287437 
	C112.808624,40.231121 112.706062,41.414852 112.326660,42.829773 
z"/>
<path fill="#C4A2E8" opacity="1.000000" stroke="none" 
	d="
M47.664867,54.053226 
	C47.823784,55.010277 47.720482,56.231968 47.358807,57.705303 
	C47.201172,56.743919 47.301910,55.530895 47.664867,54.053226 
z"/>
<path fill="#C3A3E5" opacity="1.000000" stroke="none" 
	d="
M192.269958,80.792938 
	C192.157959,80.143471 192.304611,79.288742 192.706024,78.227684 
	C192.816727,78.876793 192.672668,79.732239 192.269958,80.792938 
z"/>
<path fill="#C7A4EB" opacity="1.000000" stroke="none" 
	d="
M14.690185,37.030773 
	C14.802343,37.433277 14.669936,38.029804 14.289157,38.813511 
	C14.175730,38.408726 14.310675,37.816761 14.690185,37.030773 
z"/>
<path fill="#C5A3EB" opacity="1.000000" stroke="none" 
	d="
M43.021912,86.660393 
	C42.610107,86.755333 41.990051,86.614067 41.200249,86.194244 
	C41.624889,86.085190 42.219273,86.254692 43.021912,86.660393 
z"/>
<path fill="#C5A3EB" opacity="1.000000" stroke="none" 
	d="
M62.638153,84.853806 
	C62.486565,85.173325 62.037682,85.558731 61.270447,85.955429 
	C61.415020,85.617699 61.877941,85.268692 62.638153,84.853806 
z"/>
<path fill="#C4A4E5" opacity="1.000000" stroke="none" 
	d="
M195.686981,21.998981 
	C195.806503,22.401606 195.682983,23.003162 195.315033,23.797338 
	C195.195038,23.392609 195.319473,22.795263 195.686981,21.998981 
z"/>
<path fill="#C7A4EB" opacity="1.000000" stroke="none" 
	d="
M15.704390,34.066349 
	C15.807223,34.463047 15.667563,35.048798 15.281325,35.816803 
	C15.177130,35.417839 15.319513,34.836620 15.704390,34.066349 
z"/>
<path fill="#C5A3EB" opacity="1.000000" stroke="none" 
	d="
M40.969429,85.724236 
	C40.789818,85.782089 40.507221,85.605522 40.115871,85.198288 
	C40.293560,85.141685 40.580002,85.315750 40.969429,85.724236 
z"/>
<path fill="#C5A3EB" opacity="1.000000" stroke="none" 
	d="
M39.932144,84.774979 
	C39.719463,84.918083 39.458984,84.758316 39.138771,84.310753 
	C39.370449,84.122719 39.638889,84.272430 39.932144,84.774979 
z"/>
<path fill="#C3A2EC" opacity="1.000000" stroke="none" 
	d="
M24.724640,20.948299 
	C24.778093,21.121841 24.602381,21.432642 24.177494,21.855770 
	C24.117369,21.673918 24.306421,21.379736 24.724640,20.948299 
z"/>
<path fill="#C3A2EC" opacity="1.000000" stroke="none" 
	d="
M23.727810,22.027441 
	C23.779806,22.209236 23.594294,22.490711 23.170567,22.871944 
	C23.118336,22.690178 23.304319,22.408649 23.727810,22.027441 
z"/>
<path fill="#C3A2EC" opacity="1.000000" stroke="none" 
	d="
M22.731792,23.037544 
	C22.773071,23.217417 22.574734,23.502039 22.127106,23.881626 
	C22.082600,23.698494 22.287388,23.420395 22.731792,23.037544 
z"/>
<path fill="#C7A7EA" opacity="1.000000" stroke="none" 
	d="
M64.246033,99.876678 
	C64.117493,99.608696 64.320915,99.366707 64.837952,99.116943 
	C64.874916,99.301842 64.683723,99.566330 64.246033,99.876678 
z"/>
<path fill="#C3A2EC" opacity="1.000000" stroke="none" 
	d="
M27.738422,18.047373 
	C27.775024,18.227188 27.569996,18.509764 27.111660,18.881966 
	C27.071167,18.697775 27.283981,18.423954 27.738422,18.047373 
z"/>
<path fill="#C3A2EC" opacity="1.000000" stroke="none" 
	d="
M28.757215,17.128506 
	C28.884527,17.378853 28.685415,17.626846 28.171318,17.891499 
	C28.022131,17.634592 28.213617,17.373922 28.757215,17.128506 
z"/>
<path fill="#FDF9FE" opacity="1.000000" stroke="none" 
	d="
M211.689301,63.998093 
	C209.071869,63.998749 206.912079,64.001579 204.752289,64.000175 
	C197.539810,63.995468 197.525116,63.915771 199.468445,57.178654 
	C202.005936,48.381721 204.437027,39.554108 207.789810,30.798815 
	C210.704453,40.590343 213.672226,50.366520 216.508331,60.180744 
	C217.689331,64.267586 214.645081,63.911388 211.689301,63.998093 
z"/>
</svg>