<svg id="ehUD51qgQ0T1" xmlns="http://www.w3.org/2000/svg" xmlns:xlink="http://www.w3.org/1999/xlink" viewBox="0 0 251 127" shape-rendering="geometricPrecision" text-rendering="geometricPrecision"><path d="M188,128c-62.666664,0-124.833324,0-186.999992,0-.000003-42.333328-.000003-84.666653-.000005-126.999986c83.666653-.000005,167.33331-.000005,250.999966-.000009.000016,42.333316.000016,84.666636.000031,126.99998C230.833328,128,209.666672,128,188,128M27.998514,17.999641c0,0-.018463-.055028-.50172.150492-.212813.273821-.425627.547642-1.137453,1.039457-.468512.540484-.937023,1.080967-1.863867,1.895966-.189053.29418-.378105.588362-.500982.906103c0,0-.029175-.063898-.504189.135462-.185984.281528-.371967.563057-.49563.868086c0,0-.023266-.062412-.502499.147087-.204786.278101-.409574.5562-1.02401,1.019895-.247026.190293-.411848.435782-1.05208,1.112978-.855074,1.563199-1.710148,3.126397-3.067037,5.079899-.467388,1.174078-.934777,2.348154-1.88715,3.900336-.142384.581218-.284767,1.162437-.507707,2.158859c0,0-.019439.422493-.508571.810531-.134944.591969-.269889,1.183934-.488015,2.183938c0,0-.027499.415519-.595118.972106-2.127247,9.242939-3.147289,18.503964-.438741,28.627457c1.020127,16.210602,19.6645,33.19709,33.477389,32.653961c5.20694-.532974,10.413876-1.065941,16.281701-1.619095.4389-.040214.8778-.080421,1.809696-.212333.191192-.264496.382385-.528984.505455-.812828c0,0,.036056.060951.728271.022224c1.158875-.645439,2.317742-1.290878,4.057114-2.274132c2.415855-1.8917,4.831703-3.783401,7.896728-6.243881.145936-9.127342.4058-18.254623.410576-27.382046.006844-13.058345,1.30391-11.083133-11.110298-11.094711-6.064434-.005657-12.129406.56897-18.58181,1.054466-.244129.17001-.401291.399567-.995918,1.217949-.100739,1.213028-.201477,2.426052-.370541,4.486115.000946,6.276386.822979,7.121547,7.104248,7.195293c2.757389.032372,5.515477.005448,8.799096.005448c0,6.658058,0,12.720626-.594594,18.914962-.462917.349007-.925838.698014-1.333244,1.066628c0,0-.03989-.043648-.819752.058258-5.066944.345001-10.133892.690002-15.782238.934837-.391819-.027603-.783638-.055206-1.591968-.555221-.594383-.169495-1.188767-.338997-1.809925-.440445c0,0,.068683-.025086-.137284-.493927-.286445-.174065-.572887-.34813-.868412-.486206c0,0,.035027-.012291-.166805-.444977-.192341-.286202-.460781-.435913-1.388656-.808167-11.285662-8.765869-13.204218-35.641075-5.863286-47.718162c2.04218-3.359734,4.955765-6.701304,8.287583-8.659115c6.928757-4.071407,14.129108-4.445328,21.550613.064013c7.529141,4.574739,8.249241,4.163393,12.470288-3.012799.691406-1.175438.543571-4.126993-.290268-4.70294-4.445855-3.070839-8.922493-6.790002-13.965874-8.161216C49.513119,8.537295,38.697891,10.370803,28.518795,17.1968c-.305178.177122-.496664.437792-.520281.802841M112.6035,42.598587c.102562-1.183735.205124-2.367466.642929-4.160004.215195-.253936.455697-.490642.641968-.764267c10.12748-14.877279,19.702393-16.867195,34.907059-7.653768c1.28891.781032,4.063019-.251495,5.82196-1.108742c1.1624-.566519,1.560334-2.52091,2.618027-3.516687c3.249359-3.059149,1.517746-6.070288-1.0401-7.417237-5.424393-2.856461-11.203476-5.227481-17.085098-6.951686-3.148163-.922885-6.847565-.393329-10.235077.010468-9.294167,1.10788-17.625939,4.742912-23.718315,11.904058-9.925026,11.666147-12.883461,25.786211-10.908356,40.495222c2.155609,16.053253,9.050858,29.522758,25.424667,35.94947c13.573342,5.327538,29.971306,2.223801,40.404427-8.20784.926147-.926018,1.654648-3.123627,1.198044-4.17736-2.277573-5.256073-7.178879-6.757264-12.392838-4.144043-1.473556.73854-2.826751,1.755966-4.350784,2.347686-4.336273,1.683587-8.093796,4.313164-13.502014,3.511467-8.752922-1.2975-19.080223-14.883079-19.976937-24.645866.341362-7.01712.682717-14.034237.95475-21.065407c0,0,.042008.056912.595688-.405464m84.791108-26.242569c-.446396,1.553618-.892807,3.107235-1.436676,5.046873c0,0-.027894.397156-.514023.795025-.124436.597347-.248871,1.194693-.727906,2.444803-7.60672,23.395829-15.21344,46.791653-23.372253,70.778881-.07576,1.387909-.15152,2.775826-.250153,4.583001c4.754319,0,8.911042.204177,13.022934-.13501c1.110733-.091614,2.085648-1.829949,3.623978-3.331429c1.423599-5.179985,2.847199-10.359977,4.788101-15.950477.144058-.855446.288117-1.710892.508881-2.994965c0,0,.013153-.435249.746643-.850456c9.069763-.218247,18.139526-.436493,27.388946-.247971.159836.264878.384903.450745.73845,1.220734.300918.793686.601837,1.587364.990646,3.172081c1.642532,5.387695,3.28508,10.77539,5.057831,16.983795.278869.570854.537185,1.627281.83966,1.640091c4.930313.208672,9.866928.322121,14.797745.22821.161423-.003067.276871-2.420845.019211-4.03244-1.348419-3.971191-2.738373-7.928879-4.034988-11.916923-1.705689-5.246292-3.311158-10.525116-5.006714-15.774781-5.494629-17.012249-11.010727-34.017566-16.557236-51.820262-.278778-2.969162-1.73082-4.407279-4.886856-4.250525-3.643723.180977-7.307251.147538-10.954743.009995-2.92601-.110338-4.414032,1.004985-4.185195,4.049951c0,0-.038819-.057622-.596283.351799m-84.359131,87.652145c-30.917061,0-61.834118,0-92.795641,0c0,5.625222,0,10.554566,0,15.723328c74.969339,0,149.678011,0,224.60428,0c0-3.420349,0-6.549698.139816-10.373276-.049011-.467071-.098007-.934143-.010147-2.259849.383286-2.360131-.549057-3.248085-2.988372-3.163613-4.492569.155564-8.9944.037095-13.492356.043839-37.479965.056183-74.959945.114876-113.132965.0261-.467567.046768-.935135.093529-2.324615.003471Z" opacity="0" fill="#fefdfe"/><path d="M244.836914,107.957001c.049011.467071.098007.934143-.179474,2.044418-1.196655,8.99334-1.196655,8.993179-10.073349,8.993149-30.826217-.000084-61.652435-.000031-92.478653-.000069-38.15786-.000046-76.315712.006783-114.473568-.007744-5.658596-.002151-7.372989-2.231697-6.197683-7.836891.398907-1.902443.729481-3.819206,1.170269-6.146477c2.014664,0,3.814611.000069,5.614559-.000007c26.660509-.001114,53.321062.01532,79.981455-.040199c1.919533-.003998,3.837975-.533181,5.75692-.818192.467567-.046768.935135-.093529,2.06073.198349c1.143493.439064,1.628868.6269,2.114433.627365c23.744751.022682,47.489533.0308,71.234299.036995c12.83139.003349,25.662872-.028992,38.494079.019806c3.431153.013046,6.939545.772514,10.269242.259499c3.093811-.47667,5.149444.051811,6.706741,2.669998Z" fill="#50899f"/><path d="M47.927086,53.788586c.07019-.289101.227352-.518658,1.155121-.747071c7.513187-.050354,14.342811-.059471,21.172264-.029041c5.868225.026146,6.717842.841785,6.738594,6.59594.037857,10.494102.027878,20.988372.037857,31.482567-2.415848,1.891708-4.831696,3.783409-7.909462,5.811302-1.803749.816353-2.945587,1.496505-4.087418,2.176666c0,0-.036056-.060951-.230148.02832-.482979.259438-.686401.501427-.804359.815262-.4389.040207-.8778.080414-1.882656-.156837-5.840012.266082-11.114068.809639-16.388123,1.353195-13.140511,1.086494-31.784884-15.899994-32.778435-33.000176.344313-10.024536.662049-19.1595.979784-28.294464c0,0,.027499-.415519.317461-.80672.42237-.987725.554777-1.584252.687185-2.180775c0,0,.019439-.422493.306296-.812348.426516-.975608.566176-1.561359.705835-2.14711.467388-1.174076.934777-2.348152,2.005183-3.836502c1.409223-1.923559,2.215431-3.53285,3.021638-5.142139.082613-.300684.247435-.546173.948578-.924231.652453-.472385.85079-.757007,1.049128-1.041629-.000002,0,.023264.062412.23032-.049099.392565-.392985.578077-.67446.763588-.955935c0,0,.029175.063898.245262-.060209.391802-.43491.567514-.745711.743225-1.056511.468514-.540484.937025-1.080967,1.908352-1.820076.70784-.481201.912868-.763777,1.117895-1.046352c0,0,.018463.055028.218355-.042696.487009-.275071.686121-.523064.79723-.841706c9.702255-6.689408,20.517483-8.522916,31.635994-5.499965c5.043381,1.371214,9.520019,5.090377,13.965874,8.161216.833839.575947.981674,3.527502.290268,4.70294-4.221047,7.176192-4.941147,7.587538-12.470288,3.012799-7.421505-4.509341-14.621856-4.13542-21.550613-.064013-3.331818,1.957811-6.245403,5.299381-8.287583,8.659115-7.340932,12.077087-5.422376,38.952293,6.267811,48.098938.611885.627075.872364.786842,1.185963.860077c0,0-.035027.012291.078266.224968.395893.389236.67849.565803.961086.74237c0,0-.068683.025086.114445.269615.803192.385796,1.423248.527062,2.043308.668328.391819.027603.783638.055206,1.542611.491707c5.870452,3.847961,13.173149,2.992309,16.194946-1.445641c0,0,.03989.043648.330482.02256.739476-.406494,1.188359-.7919,1.637246-1.177307c0-6.062569,0-12.125137,0-18.783195-3.283619,0-6.041707.026924-8.799096-.005448-6.281269-.073746-7.103302-.918907-6.81171-7.870453.395836-1.896854.499138-3.118545.60244-4.340236Z" fill="#cb9afc"/><path d="M193.050644,77.157471c0,0-.013153.435249-.306259.855896-.439774,1.275375-.586426,2.130104-.733078,2.984832-1.423599,5.179986-2.847199,10.359978-4.905442,15.926377-6.591537,3.848999-13.460693,2.679832-15.210006-2.094376c7.606704-23.395828,15.213424-46.791652,23.241867-70.70648.545257-1.120558.668777-1.722114.792312-2.323673c0,0,.027894-.397156.441391-.670836.802536-1.909988,1.19159-3.5463,1.580643-5.182613c0-.000001.038819.057621.353043-.111588c1.611587-1.053143,2.874344-2.632816,4.212387-2.699381c5.501678-.273705,11.338135-1.306886,15.538849,3.853877c5.507843,17.007988,11.023941,34.013305,16.51857,51.025554c1.695556,5.249665,3.301025,10.528489,5.006714,15.774781c1.296615,3.988044,2.686569,7.945732,4.212219,12.487762-.872071,1.286209-1.980423,2.684197-2.960449,2.599381-4.354615-.3769-8.672471-1.178658-13.003602-1.826783-1.642547-5.387703-3.285095-10.775398-4.685455-16.757774-.270553-1.476631-.783295-2.358574-1.296036-3.240524-.290329-.106865-.515396-.292732-1.041122-1.081215-8.608902-.670448-16.852081-.883988-25.094788-.867706-.888595.001762-1.774566,1.337524-2.661758,2.054489m19.096298-13.159146c2.498139-.086937,5.542389.269261,4.361389-3.817581-2.836105-9.814224-5.803878-19.590401-8.718521-29.381929-3.352783,8.755293-5.783874,17.582906-8.321365,26.379839-1.943329,6.737117-1.928635,6.816814,5.283844,6.821521c2.15979.001404,4.31958-.001426,7.394653-.00185Z" fill="#cb9bfc"/><path d="M111.015961,65.006683c.933815,8.825562,11.261116,22.411141,20.014038,23.708641c5.408218.801697,9.165741-1.82788,13.502014-3.511467c1.524033-.59172,2.877228-1.609146,4.350784-2.347686c5.213959-2.613221,10.115265-1.11203,12.392838,4.144043.456604,1.053733-.271897,3.251342-1.198044,4.17736-10.433121,10.431641-26.831085,13.535378-40.404427,8.20784-16.373809-6.426712-23.269058-19.896217-25.424667-35.94947-1.975105-14.709011.98333-28.829075,10.908356-40.495222c6.092376-7.161146,14.424148-10.796178,23.718315-11.904058c3.387512-.403797,7.086914-.933353,10.235077-.010468c5.881622,1.724205,11.660705,4.095225,17.085098,6.951686c2.557846,1.346949,4.289459,4.358088,1.0401,7.417237-1.057693.995777-1.455627,2.950168-2.618027,3.516687-1.758941.857247-4.53305,1.889774-5.82196,1.108742-15.204666-9.213427-24.779579-7.223511-34.907059,7.653768-.186271.273625-.426773.510331-1.066177,1.308724-.540276,1.722275-.656334,2.900101-.7724,4.077923c0,0-.042008-.056912-.328316.172603-.426048,7.410717-.565796,14.591919-.705543,21.773117Z" fill="#cb9bfb"/><path d="M113.496429,104.076584c-1.457984.353416-3.376426.882599-5.295959.886597-26.660393.055519-53.320946.039085-79.981455.040199-1.799948.000076-3.599895.000007-5.614559.000007-.440788,2.327271-.771362,4.244034-1.170269,6.146477-1.175306,5.605194.539087,7.83474,6.197683,7.836891c38.157856.014527,76.315708.007698,114.473568.007744c30.826218.000038,61.652436-.000015,92.478653.000069c8.876694.00003,8.876694.000191,10.003433-8.646042.256592,2.833267.256592,5.962616.256592,9.382965-74.926269,0-149.634941,0-224.60428,0c0-5.168762,0-10.098106,0-15.723328c30.961523,0,61.87858,0,93.256593.068421Z" fill="#5f8391"/><path d="M244.90535,107.527679c-1.625733-2.188865-3.681366-2.717346-6.775177-2.240676-3.329697.513015-6.838089-.246453-10.269242-.259499-12.831207-.048798-25.662689-.016457-38.494079-.019806-23.744766-.006195-47.489548-.014313-71.234299-.036995-.485565-.000465-.97094-.188301-1.767906-.554016c37.168465-.323219,74.648445-.381912,112.12841-.438095c4.497956-.006744,8.999787.111725,13.492356-.043839c2.439315-.084472,3.371658.803482,2.919937,3.592926Z" fill="#5f8391"/><path d="M77.355515,90.806595c-.334572-10.209809-.324593-20.704079-.36245-31.198181-.020752-5.754155-.870369-6.569794-6.738594-6.59594-6.829453-.03043-13.659077-.021313-20.978432-.05772c5.574932-.340332,11.639904-.914959,17.704338-.909302c12.414208.011578,11.117142-1.963634,11.110298,11.094711-.004776,9.127423-.26464,18.254704-.73516,27.666432Z" fill="#c4a2e8"/><path d="M13.646296,40.102543c-.033926,8.85667-.351662,17.991634-.703866,27.615261-2.727233-8.833004-1.707191-18.094029.703866-27.615261Z" fill="#c7a4eb"/><path d="M218.037018,16.592152c-4.181381-4.763409-10.017838-3.730228-15.519516-3.456523-1.338043.066565-2.6008,1.646238-4.243485,2.683874-.511963-2.86025.976059-3.975573,3.902069-3.865235c3.647492.137543,7.31102.170982,10.954743-.009995c3.156036-.156754,4.608078,1.281363,4.906189,4.647879Z" fill="#c4a4e5"/><path d="M60.577793,85.993622c-2.631866,4.386993-9.934563,5.242645-15.514316,1.444763c4.990493-.703812,10.057441-1.048813,15.514316-1.444763Z" fill="#c5a3eb"/><path d="M193.417389,76.949867c.520447-.509361,1.406418-1.845123,2.295013-1.846885c8.242707-.016282,16.485886.197258,25.004975.664321-8.793717.538468-17.86348.756714-27.299988,1.182564Z" fill="#c3a3e5"/><path d="M171.619812,95.1259c2.02536,4.478508,8.894516,5.647675,15.235504,2.058182-.653137.85556-1.628052,2.593895-2.738785,2.685509-4.111892.339187-8.268615.13501-13.022934.13501.098633-1.807175.174393-3.195092.526215-4.878701Z" fill="#c5a5e2"/><path d="M227.894897,97.460556c4.266037.23777,8.583893,1.039528,12.938508,1.416428.980026.084816,2.088378-1.313172,3.157714-2.439667-.116836.881042-.232284,3.29882-.393707,3.301887-4.930817.093911-9.867432-.019538-14.797745-.22821-.302475-.01281-.560791-1.069237-.90477-2.050438Z" fill="#c4a4e3"/><path d="M111.034515,64.538071c.121193-6.712586.260941-13.893788.72165-21.297478-.020386,6.794628-.361741,13.811745-.72165,21.297478Z" fill="#c69fed"/><path d="M46.064945,101.390572c4.937866-.815239,10.211922-1.358796,15.721493-1.614785-4.971428.820526-10.178364,1.353493-15.721493,1.614785Z" fill="#c7a7ea"/><path d="M20.694893,25.08691c-.527397,1.421034-1.333605,3.030325-2.491921,4.758732.502964-1.444078,1.358038-3.007276,2.491921-4.758732Z" fill="#c3a2ec"/><path d="M197.67334,16.151308c-.110321,1.431603-.499375,3.067915-1.253189,4.784895.08165-1.47295.528061-3.026567,1.253189-4.784895Z" fill="#c4a4e5"/><path d="M65.380142,99.059586c.795731-.660798,1.937569-1.34095,3.451065-1.988396-.787208.678154-1.946075,1.323593-3.451065,1.988396Z" fill="#c7a7ea"/><path d="M221.879913,77.383469c.48114.550384.993882,1.432327,1.22049,2.513443-.587036-.594521-.887955-1.388199-1.22049-2.513443Z" fill="#c3a3e5"/><path d="M112.32666,42.829773c-.160774-.946632-.044716-2.124458.327942-3.542336.154022.943684.05146,2.127415-.327942,3.542336Z" fill="#c69fed"/><path d="M47.664867,54.053226c.158917.957051.055615,2.178742-.30606,3.652077-.157635-.961384-.056897-2.174408.30606-3.652077Z" fill="#c4a2e8"/><path d="M192.269958,80.792938c-.111999-.649467.034653-1.504196.436066-2.565254.110703.649109-.033356,1.504555-.436066,2.565254Z" fill="#c3a3e5"/><path d="M14.690185,37.030773c.112158.402504-.020249.999031-.401028,1.782738-.113427-.404785.021518-.99675.401028-1.782738Z" fill="#c7a4eb"/><path d="M43.021912,86.660393c-.411805.09494-1.031861-.046326-1.821663-.466149.42464-.109054,1.019024.060448,1.821663.466149Z" fill="#c5a3eb"/><path d="M62.638153,84.853806c-.151588.319519-.600471.704925-1.367706,1.101623.144573-.33773.607494-.686737,1.367706-1.101623Z" fill="#c5a3eb"/><path d="M195.686981,21.998981c.119522.402625-.003998,1.004181-.371948,1.798357-.119995-.404729.00444-1.002075.371948-1.798357Z" fill="#c4a4e5"/><path d="M15.70439,34.066349c.102833.396698-.036827.982449-.423065,1.750454-.104195-.398964.038188-.980183.423065-1.750454Z" fill="#c7a4eb"/><path d="M40.969429,85.724236c-.179611.057853-.462208-.118714-.853558-.525948.177689-.056603.464131.117462.853558.525948Z" fill="#c5a3eb"/><path d="M39.932144,84.774979c-.212681.143104-.47316-.016663-.793373-.464226.231678-.188034.500118-.038323.793373.464226Z" fill="#c5a3eb"/><path d="M24.72464,20.948299c.053453.173542-.122259.484343-.547146.907471-.060125-.181852.128927-.476034.547146-.907471Z" fill="#c3a2ec"/><path d="M23.72781,22.027441c.051996.181795-.133516.46327-.557243.844503-.052231-.181766.133752-.463295.557243-.844503Z" fill="#c3a2ec"/><path d="M22.731792,23.037544c.041279.179873-.157058.464495-.604686.844082-.044506-.183132.160282-.461231.604686-.844082Z" fill="#c3a2ec"/><path d="M64.246033,99.876678c-.12854-.267982.074882-.509971.591919-.759735.036964.184899-.154229.449387-.591919.759735Z" fill="#c7a7ea"/><path d="M27.738422,18.047373c.036602.179815-.168426.462391-.626762.834593-.040493-.184191.172321-.458012.626762-.834593Z" fill="#c3a2ec"/><path d="M28.757215,17.128506c.127312.250347-.0718.49834-.585897.762993-.149187-.256907.042299-.517577.585897-.762993Z" fill="#c3a2ec"/><path d="M211.689301,63.998093c-2.617432.000656-4.777222.003486-6.937012.002082-7.212479-.004707-7.227173-.084404-5.283844-6.821521c2.537491-8.796933,4.968582-17.624546,8.321365-26.379839c2.914643,9.791528,5.882416,19.567705,8.718521,29.381929c1.181,4.086842-1.86325,3.730644-4.81903,3.817349Z" fill="#fdf9fe"/></svg>
